<?xml version="1.0" encoding="utf-8"?>
<!-- Generator: Adobe Illustrator 24.0.1, SVG Export Plug-In . SVG Version: 6.00 Build 0)  -->
<svg version="1.1" id="Calque_1" xmlns="http://www.w3.org/2000/svg" xmlns:xlink="http://www.w3.org/1999/xlink" x="0px" y="0px"
	 viewBox="0 0 512 512" style="enable-background:new 0 0 512 512;" xml:space="preserve">
<style type="text/css">
	.st0{fill:#0A0024;}
	.st1{fill:#FFFFFF;}
	.st2{fill:#25AAAC;}
</style>
<g>
	<rect class="st0" width="512" height="512"/>
	<path class="st1" d="M117.8,192.5c-0.9,0-1.8-0.1-2.7,0H91.6l0,0H78.7c-3.1,0-5.7,2.5-5.7,5.7v78.2c0,3.1,2.5,5.6,5.6,5.6h0h13
		h25.3c38.1,0,46.1-20.5,45.6-45.6C162.1,212.1,155.3,192.5,117.8,192.5z M117.1,267.6H91.6v-60.8h26.2v0
		c23.1,0,25.5,13.3,25.8,29.8C143.9,253.7,140.6,267.6,117.1,267.6z"/>
	<path class="st1" d="M351.8,195.3c-6.9-3.1-15.3-4.4-24.8-4.4c-9.5,0-18,1.3-24.8,4.4c-11.8,5.3-19,15.7-19,33.4v17
		c0,17.7,7.2,28.2,19,33.4c6.9,3.1,15.3,4.4,24.8,4.4c9.5,0,18-1.3,24.8-4.4c11.8-5.3,19-15.7,19-33.4v-17
		C370.8,211,363.7,200.6,351.8,195.3z M351.8,244.9c0,16.8-7.4,23.7-24.8,23.7c-17.4,0-24.8-7-24.8-23.7v-15.3
		c0-16.8,7.4-23.7,24.8-23.7c17.4,0,24.8,7,24.8,23.7V244.9z"/>
	<path class="st1" d="M265.4,267.6h-14.7v0H227v0c-23.1,0-25.5-13.3-25.8-29.8c0-0.3,0-0.7,0-1c0-0.8,0-1.5,0-2.3
		c0.2-15.5,4.5-27.7,26.5-27.7h10.7l20.4,0c1.4,0,2-0.5,2.5-1.5l4.9-11.8c0.3-0.7,0-1.1-0.7-1.1l-14.7,0v0h-22.8c-0.6,0-1.1,0-1.7,0
		c-36.7,0.6-44.5,20.9-44,45.6c0.5,24,7.1,43.3,43.2,43.9l2.3,0l31.1,0c1.4,0,2-0.5,2.5-1.5l4.9-11.8
		C266.4,268,266.2,267.6,265.4,267.6z"/>
	<path class="st1" d="M478.6,192.5L478.6,192.5l-12.1,0c-1.4,0-2.7,0.7-3.5,1.9l-22.9,35.5c-1,1.5-3.1,1.5-4.1,0l-23.3-36
		c-0.5-0.8-1.4-1.3-2.4-1.3h-12.8l0,0h-4.2V282h16.4c1.2,0,2.2-1,2.2-2.2v-58.9l19,29.4l0,0h0l1.9,2.9c2.5,3.7,8,3.7,10.5,0l1.9-2.9
		h0l0,0l19-29.4v59.2c0,1.1,0.9,1.9,1.9,1.9h16.7v-89.5H478.6z"/>
	<path class="st2" d="M47.7,205.2L47.7,205.2l0-12.7h-15c-2,0-3.6,1.6-3.6,3.6v17.5C33.7,208.5,40.3,205.2,47.7,205.2z"/>
	<path class="st1" d="M31.5,282h16.2v-70.6H36.4c-4,0-7.2,3.2-7.2,7.2v61C29.1,280.9,30.2,282,31.5,282z"/>
	<g>
		<path class="st2" d="M34.9,348.4l0.3-1.2l0.9,0.3h3h0.2l0.2-1.1h-2.6l-3,0.2l-3,0.3l-1.7-0.1v-1.2l2.7-0.2l2-0.1l2-0.2l4.2-0.4
			l0.2-0.6l-3.2,0.3l-2-0.2v-0.1v-0.1h-1.7v-1.2l1.8-0.1l5.6-0.6l1.1-4.4l2.2-7.9l-4.6,0.5l-4.4,0.2l-1.7,0.2l-0.2-1.2l1.7-0.2
			l0.8-0.1v-0.7l2-0.1l4.7-0.6l2.3-0.2l0.2-0.4l-4.7,0.3l-5.2,0.2l-0.2-1.2h0.2v-1l5.7-0.9l5.4-0.5l1.7-4.5l1.1-2.4v-0.2l2.4-6.3
			l1.9-4.5l0.7-1.5l1.1,0.5l-0.7,1.5l-0.3,0.8l0.7,0.2l-0.5,1.8l-0.3,0.6l0.2,0.1l-0.2,1.1l-0.4,1.4l0.9,0.3l-0.3,1.8l-0.9,3.3
			l-1.9,5.3l-0.2,0.5h6l3.3,0.2l1.7-5.1l2-5l1.4-3.2l1.1-0.4l0.3,1.2l-0.7,0.1l-1.1,2.7l-1.3,3.6l2.2-3.9l0.5,0.2l0.5-0.6l0.5,0.2
			l1.2-1l1,0.8l-0.9,1.7l-1.3,3.3l-2.1,4.9l-0.2,0.5h0.2l7.9,0.5v1.2l-1.8-0.1l-0.1,0.6h2.5v1.2h-1.4l-3.5,0.2h0.9v1.2h-1.1h-1.1
			h-3.8h-0.1h-0.6l-0.5,1.4l-2.3,7.3l-1.2,3.9h1.7h0.4l9.5,0.2v1.2l-4.6-0.1l-0.2,1.1l-2.3,0.5l-4.2,0.5l-0.9,0.1h0.6H65h3.2
			l0.2,1.2l-1.3,0.2h-2.5l-4,0.3l-2.8,0.4l-0.2,0.9l-0.8,6.2l-0.3,3.7l-1.2-0.2l0.3-3.7l0.2-1.9l-0.6,2.5l-1.1,3l-1.1-0.2l-0.6,2.1
			l-1.2-0.3l0.8-5.8l1.4-5.8l-3.7,0.5l-4.8,0.4l-0.4,1.7l-1.3,4.5l-0.6,1.6l-1.2-0.2l-0.3-1.4l1-4.2l0.5-1.9h-0.3l-0.9,3.7l-1.5,6.4
			l-0.6,4.2l-1.2-0.2l0.6-4.2l1.1-4.8l-1.1-0.4l0.2-0.4l-0.6-0.2l0.5-2.6l0.4-1.5h-3L34.9,348.4z M42.8,346.4l-0.2,1h0.2l0.2-1H42.8
			z M43.4,343.8l-0.2,0.7h0.2l0.2-0.7H43.4z M44,342h0.2l0.6-2.5L44,342z M53.7,346.1h-1.8l-6.6,0.2l-0.2,0.8l4.4-0.4l4.2-0.5
			L53.7,346.1z M54.4,343.5l-1.5,0.1l-5.5,0.1l-1.5,0.1l-0.2,0.7l2.6-0.1l5.8-0.2h0.2L54.4,343.5z M54.9,341.6l0.8-3.2l1.9-5.7
			l0.3-1.6l0.6-2h-0.3l-6.3,0.2l-2.7,0.2l-1.7,6.7l-1.4,5.8l5.3-0.2H54.9z M50.8,327.1h-0.9l-0.1,0.1L50.8,327.1z M54.6,347.4
			L54,350l0.8-2.6H54.6z M54.9,346.1L54.9,346.1L54.9,346.1L54.9,346.1L54.9,346.1z M62.9,343.1l-0.7,0.1l-3.6,0.2l-0.1,0.3l0.8-0.1
			l4.2-0.5l0.3-0.1H62.9z"/>
		<path class="st1" d="M109.4,350c-2.6,3.3-6.9,4.9-12.2,4.9c-8,0-13-4.9-13-11.5c0-6.7,5.1-11,14-11.1h11.2v-1.1
			c0-4.7-3-7.4-8.8-7.4c-3.5,0-7.2,1.2-10.9,3.7l-3.3-5.6c5.1-3.1,8.9-4.7,15.9-4.7c9.5,0,14.9,4.9,14.9,13l0.1,24.2h-7.8V350z
			 M109.3,341.5v-3.4h-10c-5.2,0-7.6,1.4-7.6,4.9c0,3.3,2.7,5.5,7.2,5.5C104.6,348.5,108.9,345.5,109.3,341.5z"/>
		<path class="st1" d="M161.3,350.9c0,10.6-7.6,17.3-19.2,17.3c-5.8,0-10.8-1.8-15.3-4.9l3.4-5.8c3.5,2.6,7.1,4,11.6,4
			c7,0,11.6-4.1,11.6-10.5v-4.7c-2.5,4-6.7,6.2-12.2,6.2c-10,0-16.7-7.2-16.7-17.8c0-10.4,6.6-17.5,16.4-17.6
			c5.7-0.1,9.9,2.2,12.5,6.2v-6h7.9V350.9z M153.3,335.1c0-6.7-4.4-11.3-10.6-11.3c-6.3,0-10.7,4.7-10.8,11.3
			c0.1,6.7,4.4,11.4,10.8,11.4C149,346.4,153.3,341.7,153.3,335.1z"/>
		<path class="st1" d="M204.8,339.1h-27.9c1.2,5.7,5.6,9.2,11.5,9.2c4,0,7.7-1.5,10.4-4.3l4.2,4.5c-3.6,4-8.9,6.2-15.3,6.2
			c-11.4,0-18.9-7.6-18.9-18.7c0-11.2,7.7-18.7,18.7-18.8C200.5,317.3,205.8,325.8,204.8,339.1z M197.9,333.3
			c-0.3-6-4.2-9.6-10.3-9.6c-5.8,0-9.9,3.7-10.8,9.6H197.9z"/>
		<path class="st1" d="M248.5,331.5v23h-8v-20.8c0-5.6-3.3-9-8.9-9c-6.1,0.1-9.9,4.3-10.5,10.1v19.6h-8v-36.9h8v7.1
			c2.6-5.1,7.4-7.4,13.6-7.4C243.4,317.3,248.5,322.7,248.5,331.5z"/>
		<path class="st1" d="M289.6,323.3l-4.4,5.1c-2.6-2.6-6.1-4.2-10.6-4.2c-6.4,0-11,4.8-11,11.8c0,7,4.6,11.8,11,11.8
			c4.7,0,8.4-1.5,10.9-4.4l4.4,4.4c-3.3,4.4-8.7,6.9-15.7,6.9c-11,0-18.6-7.6-18.6-18.7c0-11.2,7.6-18.8,18.6-18.8
			C281,317.3,286.2,319.4,289.6,323.3z"/>
		<path class="st1" d="M329.4,339.1h-27.9c1.2,5.7,5.6,9.2,11.5,9.2c4,0,7.7-1.5,10.4-4.3l4.2,4.5c-3.6,4-8.9,6.2-15.3,6.2
			c-11.4,0-18.9-7.6-18.9-18.7c0-11.2,7.7-18.7,18.7-18.8C325,317.3,330.3,325.8,329.4,339.1z M322.4,333.3c-0.3-6-4.2-9.6-10.3-9.6
			c-5.8,0-9.9,3.7-10.8,9.6H322.4z"/>
		<path class="st2" d="M372,354.5l-8.1-24.6l-8,24.6h-10.7l-13.7-37.3l10.9-0.1l8.3,26.7l8.1-26.7h10.5l8.2,26.7l8.2-26.7h10.6
			l-13.6,37.4H372z"/>
		<path class="st2" d="M434.1,339.1h-26.8c1.2,4.7,4.9,7.5,9.6,7.5c3.5,0,6.9-1.4,9.4-4l5.6,5.7c-3.7,4.2-9.2,6.6-16,6.6
			c-11.9,0-19.5-7.6-19.5-18.9c0-11.5,7.8-19.2,19.2-19.2C428.9,316.8,435,325.5,434.1,339.1z M424.1,332.8
			c-0.1-4.9-3.3-8.1-8.3-8.1c-4.7,0-7.9,3.2-8.7,8.1H424.1z"/>
		<path class="st2" d="M481.6,336c0,11.3-6.9,18.9-17.4,18.9c-5.2,0-9.3-2.1-12-5.8v5.4h-10.7V303h10.7v19.6
			c2.6-3.7,6.7-5.8,11.8-5.8C474.5,316.8,481.6,324.5,481.6,336z M470.7,335.7c0-6-3.7-10.3-9.2-10.3s-9.3,4.2-9.3,10.3
			c0,6.2,3.8,10.3,9.3,10.3S470.7,341.8,470.7,335.7z"/>
	</g>
</g>
</svg>
