<?xml version="1.0" encoding="utf-8"?>
<!-- Generator: Adobe Illustrator 24.0.1, SVG Export Plug-In . SVG Version: 6.00 Build 0)  -->
<svg version="1.1" id="Calque_1" xmlns="http://www.w3.org/2000/svg" xmlns:xlink="http://www.w3.org/1999/xlink" x="0px" y="0px"
	 viewBox="0 0 512 512" style="enable-background:new 0 0 512 512;" xml:space="preserve">
<style type="text/css">
	.st0{fill:#0A0024;}
	.st1{fill:#FFFFFF;}
	.st2{fill:#25AAAC;}
</style>
<g>
	<rect class="st0" width="512" height="512"/>
	<path class="st1" d="M117.8,205.3c-0.9,0-1.8-0.1-2.7,0H91.6l0,0H78.7c-3.1,0-5.7,2.5-5.7,5.7v78.2c0,3.1,2.5,5.6,5.6,5.6h0h13
		h25.3c38.1,0,46.1-20.5,45.6-45.6C162.1,224.9,155.3,205.3,117.8,205.3z M117.1,280.5H91.6v-60.8h26.2v0
		c23.1,0,25.5,13.3,25.8,29.8C143.9,266.5,140.6,280.5,117.1,280.5z"/>
	<path class="st1" d="M351.8,208.1c-6.9-3.1-15.3-4.4-24.8-4.4c-9.5,0-18,1.3-24.8,4.4c-11.8,5.3-19,15.7-19,33.4v17
		c0,17.7,7.2,28.2,19,33.4c6.9,3.1,15.3,4.4,24.8,4.4c9.5,0,18-1.3,24.8-4.4c11.8-5.3,19-15.7,19-33.4v-17
		C370.8,223.8,363.7,213.4,351.8,208.1z M351.8,257.7c0,16.8-7.4,23.7-24.8,23.7c-17.4,0-24.8-7-24.8-23.7v-15.3
		c0-16.8,7.4-23.7,24.8-23.7c17.4,0,24.8,7,24.8,23.7V257.7z"/>
	<path class="st1" d="M265.4,280.5h-14.7v0H227v0c-23.1,0-25.5-13.3-25.8-29.8c0-0.3,0-0.7,0-1c0-0.8,0-1.5,0-2.3
		c0.2-15.5,4.5-27.7,26.5-27.7h10.7l20.4,0c1.4,0,2-0.5,2.5-1.5l4.9-11.8c0.3-0.7,0-1.1-0.7-1.1l-14.7,0v0h-22.8c-0.6,0-1.1,0-1.7,0
		c-36.7,0.6-44.5,20.9-44,45.6c0.5,24,7.1,43.3,43.2,43.9l2.3,0l31.1,0c1.4,0,2-0.5,2.5-1.5l4.9-11.8
		C266.4,280.8,266.2,280.5,265.4,280.5z"/>
	<path class="st1" d="M478.6,205.3L478.6,205.3l-12.1,0c-1.4,0-2.7,0.7-3.5,1.9l-22.9,35.5c-1,1.5-3.1,1.5-4.1,0l-23.3-36
		c-0.5-0.8-1.4-1.3-2.4-1.3h-12.8l0,0h-4.2v89.5h16.4c1.2,0,2.2-1,2.2-2.2v-58.9l19,29.4l0,0h0l1.9,2.9c2.5,3.7,8,3.7,10.5,0
		l1.9-2.9h0l0,0l19-29.4v59.2c0,1.1,0.9,1.9,1.9,1.9h16.7v-89.5H478.6z"/>
	<path class="st2" d="M47.7,218L47.7,218l0-12.7h-15c-2,0-3.6,1.6-3.6,3.6v17.5C33.7,221.3,40.3,218,47.7,218z"/>
	<path class="st1" d="M31.5,294.9h16.2v-70.6H36.4c-4,0-7.2,3.2-7.2,7.2v61C29.1,293.8,30.2,294.9,31.5,294.9z"/>
	<g>
		<path class="st2" d="M168.3,337.3l0.2-0.9l0.6,0.2h2.1h0.1l0.2-0.8h-1.8l-2.1,0.1l-2.1,0.2l-1.2-0.1v-0.8l1.9-0.1l1.4-0.1l1.4-0.2
			l2.9-0.3l0.1-0.4l-2.2,0.2l-1.4-0.1v-0.1v-0.1h-1.2v-0.9l1.3-0.1l3.9-0.4l0.8-3.1l1.5-5.6l-3.2,0.3l-3.1,0.2l-1.2,0.2L167,324
			l1.2-0.2l0.6-0.1v-0.5l1.4-0.1l3.3-0.4l1.6-0.2l0.1-0.3l-3.3,0.2l-3.7,0.2l-0.1-0.8h0.2v-0.7l4-0.6l3.8-0.4l1.2-3.2l0.8-1.6v-0.1
			l1.7-4.4l1.3-3.1l0.5-1.1l0.7,0.3l-0.5,1.1l-0.2,0.5l0.5,0.2l-0.4,1.3l-0.2,0.4l0.1,0.1l-0.2,0.7l-0.3,1l0.6,0.2l-0.2,1.3
			l-0.6,2.3l-1.3,3.7l-0.2,0.3h4.2l2.3,0.1l1.2-3.6l1.4-3.5l1-2.2l0.8-0.3l0.2,0.9l-0.5,0.1l-0.7,1.9l-0.9,2.5l1.5-2.7l0.3,0.2
			l0.3-0.4l0.4,0.2l0.9-0.7l0.7,0.5l-0.6,1.2l-0.9,2.3l-1.5,3.4l-0.1,0.4h0.2l5.6,0.3v0.8l-1.3-0.1l-0.1,0.4h1.8v0.9h-1l-2.4,0.2
			h0.6v0.9H192h-0.7h-2.7h-0.1h-0.4l-0.3,1l-1.6,5.1l-0.9,2.7h1.2h0.3l6.6,0.1v0.8l-3.2-0.1l-0.1,0.7l-1.6,0.3l-2.9,0.3l-0.6,0.1
			h0.4h4.1h2.2l0.1,0.9l-0.9,0.1h-1.8l-2.8,0.2l-2,0.3l-0.1,0.6l-0.6,4.4l-0.2,2.6l-0.8-0.1l0.2-2.6l0.2-1.3l-0.4,1.8l-0.8,2.1
			l-0.8-0.1l-0.4,1.5l-0.8-0.2l0.5-4l1-4.1l-2.6,0.3l-3.4,0.3l-0.3,1.2l-0.9,3.1l-0.4,1.1l-0.9-0.1l-0.2-1l0.7-2.9l0.4-1.3h-0.2
			l-0.6,2.6l-1.1,4.5l-0.4,2.9l-0.8-0.1l0.4-2.9l0.8-3.3l-0.8-0.3l0.1-0.3l-0.4-0.2l0.3-1.8l0.3-1.1H169L168.3,337.3z M173.8,335.8
			l-0.2,0.7h0.2l0.2-0.7H173.8z M174.3,334l-0.2,0.5h0.2l0.2-0.5H174.3z M174.7,332.8h0.1l0.4-1.8L174.7,332.8z M181.5,335.7h-1.3
			l-4.6,0.2l-0.2,0.6l3.1-0.3l2.9-0.3L181.5,335.7z M182,333.8l-1.1,0.1l-3.9,0.1L176,334l-0.1,0.5l1.8-0.1l4.1-0.2h0.1L182,333.8z
			 M182.4,332.5l0.6-2.2l1.3-4l0.2-1.1l0.4-1.4h-0.2l-4.4,0.1l-1.9,0.1l-1.2,4.7l-1,4l3.7-0.2H182.4z M179.4,322.4h-0.6l-0.1,0.1
			L179.4,322.4z M182.1,336.6l-0.4,1.8l0.5-1.8H182.1z M182.4,335.7L182.4,335.7L182.4,335.7L182.4,335.7L182.4,335.7z M187.9,333.6
			l-0.5,0.1l-2.5,0.2l-0.1,0.2l0.5-0.1l2.9-0.3l0.2-0.1H187.9z"/>
		<path class="st1" d="M220.6,338.4c-1.9,2.3-4.8,3.4-8.6,3.4c-5.6,0-9.1-3.5-9.1-8c0-4.7,3.6-7.7,9.8-7.8h7.8v-0.8
			c0-3.3-2.1-5.2-6.2-5.2c-2.5,0-5.1,0.9-7.6,2.6l-2.3-3.9c3.6-2.1,6.2-3.3,11.2-3.3c6.7,0,10.4,3.4,10.5,9.1l0,17h-5.5V338.4z
			 M220.5,332.4v-2.4h-7c-3.7,0-5.4,1-5.4,3.5c0,2.3,1.9,3.8,5,3.8C217.2,337.4,220.2,335.3,220.5,332.4z"/>
		<path class="st1" d="M256.9,339c0,7.4-5.3,12.1-13.4,12.1c-4,0-7.6-1.3-10.8-3.4l2.4-4c2.4,1.8,5,2.8,8.1,2.8
			c4.9,0,8.1-2.9,8.1-7.4v-3.3c-1.8,2.8-4.7,4.4-8.6,4.4c-7,0-11.7-5.1-11.7-12.5c0-7.3,4.6-12.3,11.5-12.3c4,0,7,1.6,8.8,4.4v-4.2
			h5.6V339z M251.4,327.9c0-4.7-3.1-7.9-7.4-7.9c-4.4,0-7.5,3.3-7.5,7.9c0,4.7,3.1,8,7.5,8C248.3,335.9,251.4,332.6,251.4,327.9z"/>
		<path class="st1" d="M287.5,330.7h-19.6c0.9,4,3.9,6.5,8,6.5c2.8,0,5.4-1.1,7.3-3l3,3.2c-2.5,2.8-6.2,4.4-10.7,4.4
			c-8,0-13.2-5.3-13.2-13.1c0-7.8,5.4-13.1,13.1-13.2C284.5,315.5,288.2,321.4,287.5,330.7z M282.6,326.7c-0.2-4.2-3-6.7-7.2-6.7
			c-4.1,0-7,2.6-7.6,6.7H282.6z"/>
		<path class="st1" d="M318.1,325.4v16.1h-5.6V327c0-3.9-2.3-6.3-6.2-6.3c-4.3,0.1-7,3-7.4,7.1v13.8h-5.6v-25.9h5.6v5
			c1.8-3.6,5.2-5.2,9.5-5.2C314.5,315.5,318.1,319.3,318.1,325.4z"/>
		<path class="st1" d="M346.9,319.7l-3.1,3.6c-1.8-1.9-4.3-3-7.4-2.9c-4.5,0-7.7,3.4-7.7,8.3c0,4.9,3.2,8.3,7.7,8.3
			c3.3,0,5.9-1.1,7.6-3.1l3.1,3.1c-2.3,3.1-6.1,4.8-11,4.8c-7.7,0-13-5.3-13-13.1c0-7.8,5.4-13.2,13-13.2
			C340.9,315.5,344.5,317,346.9,319.7z"/>
		<path class="st1" d="M374.8,330.7h-19.6c0.9,4,3.9,6.5,8,6.5c2.8,0,5.4-1.1,7.3-3l3,3.2c-2.5,2.8-6.2,4.4-10.7,4.4
			c-8,0-13.2-5.3-13.2-13.1c0-7.8,5.4-13.1,13.1-13.2C371.8,315.5,375.5,321.4,374.8,330.7z M369.9,326.7c-0.2-4.2-3-6.7-7.2-6.7
			c-4.1,0-7,2.6-7.6,6.7H369.9z"/>
		<path class="st2" d="M404.7,341.6l-5.6-17.3l-5.6,17.3H386l-9.6-26.1l7.6-0.1l5.8,18.7l5.6-18.7h7.4l5.7,18.7l5.7-18.7h7.4
			l-9.5,26.2H404.7z"/>
		<path class="st2" d="M448.3,330.7h-18.8c0.9,3.3,3.4,5.3,6.8,5.3c2.5,0,4.8-1,6.6-2.8l3.9,4c-2.6,2.9-6.5,4.6-11.2,4.6
			c-8.4,0-13.7-5.4-13.7-13.3c0-8.1,5.5-13.4,13.5-13.4C444.6,315.1,448.9,321.2,448.3,330.7z M441.2,326.3
			c-0.1-3.5-2.3-5.7-5.8-5.7c-3.3,0-5.6,2.2-6.1,5.7H441.2z"/>
		<path class="st2" d="M481.6,328.6c0,7.9-4.8,13.2-12.2,13.2c-3.7,0-6.5-1.5-8.4-4.1v3.8h-7.5v-36.1h7.5v13.8
			c1.9-2.6,4.7-4.1,8.3-4.1C476.6,315.1,481.6,320.5,481.6,328.6z M474,328.4c0-4.2-2.6-7.2-6.5-7.2s-6.5,3-6.5,7.2
			c0,4.3,2.7,7.3,6.5,7.3S474,332.6,474,328.4z"/>
	</g>
</g>
</svg>
